// Gmsh project created on Thu Feb  9 18:50:05 2012
h=0.1;
Point(1) = {-1, -1, -1, h};
Point(2) = {1, -1, -1, h};
Point(3) = {1, 1, -1, h};
Point(4) = {-1, 1, -1, h};
Point(5) = {-1, -1, 1, h};
Point(6) = {1, -1, 1, h};
Point(7) = {1, 1, 1, h};
Point(8) = {-1, 1, 1, h};
Point(9) = {0, -1, -1, h};
Point(10) = {0, -1, 1, h};
Point(11) = {0, 1, -1, h};
Point(12) = {0, 1, 1, h};
Line(1) = {1, 9};
Line(2) = {9, 2};
Line(3) = {2, 6};
Line(4) = {6, 10};
Line(5) = {10, 5};
Line(6) = {5, 1};
Line(7) = {5, 8};
Line(8) = {8, 12};
Line(9) = {12, 7};
Line(10) = {7, 3};
Line(11) = {3, 11};
Line(12) = {11, 4};
Line(13) = {4, 8};
Line(14) = {1, 4};
Line(15) = {3, 2};
Line(16) = {6, 7};
Line Loop(17) = {2, 3, 4, 5, 6, 1};
Plane Surface(18) = {17};
Line Loop(19) = {7, 8, 9, -16, 4, 5};
Plane Surface(20) = {19};
Line Loop(21) = {10, 11, 12, 13, 8, 9};
Plane Surface(22) = {21};
Line Loop(23) = {14, -12, -11, 15, -2, -1};
Plane Surface(24) = {23};
Line Loop(25) = {16, 10, 15, 3};
Plane Surface(26) = {25};
Line Loop(27) = {14, 13, -7, 6};
Plane Surface(28) = {27};
Delete {
  Surface{18, 22};
}
Line(29) = {10, 9};
Line(30) = {11, 12};
Line Loop(31) = {5, 6, 1, -29};
Plane Surface(32) = {31};
Line Loop(33) = {4, 29, 2, 3};
Plane Surface(34) = {33};
Line Loop(35) = {9, 10, 11, 30};
Plane Surface(36) = {35};
Line Loop(37) = {8, -30, 12, 13};
Plane Surface(38) = {37};
Delete {
  Surface{20, 24};
}
Line(39) = {12, 10};
Line(40) = {11, 9};
Line Loop(41) = {8, 39, 5, 7};
Plane Surface(42) = {41};
Line Loop(43) = {9, -16, 4, -39};
Plane Surface(44) = {43};
Line Loop(45) = {14, -12, 40, -1};
Plane Surface(46) = {45};
Line Loop(47) = {11, 40, 2, -15};
Plane Surface(48) = {47};
Line Loop(49) = {29, -40, 30, 39};
Plane Surface(50) = {49};
Surface Loop(51) = {42, 38, 46, 28, 32, 50};
Volume(52) = {51};
Surface Loop(53) = {44, 36, 26, 48, 34, 50};
Volume(54) = {53};
Physical Volume("left") = {52};
Physical Volume("right") = {54};
